# xmcd
#
# Track frame offsets:
#	187
#	28772
#	49997
#	82850
#	111860
#	129760
#	155830
#
# Disc length: 2354 seconds
#
# Revision: 1
# Processed by: cddbd v1.5.1PL0 Copyright (c) Steve Scherf et al.
# Submitted via: CDex 1.50Beta5
#
DISCID=52093007
DTITLE=豊田勇造 - 血を越えて愛し合えたら
DYEAR=1900
DGENRE=Blues
TTITLE0=大きな自由
TTITLE1=台湾
TTITLE2=越えて行け優しさを
TTITLE3=北海道の朝
TTITLE4=殺そうと思うだけで良かったのに
TTITLE5=憧れのジャマイカ
TTITLE6=ジャナイカ ジャマイカ
EXTD=
EXTT0=
EXTT1=
EXTT2=
EXTT3=
EXTT4=
EXTT5=
EXTT6=
PLAYORDER=
